<?xml version="1.0" standalone="no"?><!DOCTYPE svg PUBLIC "-//W3C//DTD SVG 1.1//EN" "http://www.w3.org/Graphics/SVG/1.1/DTD/svg11.dtd"><svg t="1549875240841" class="icon" style="" viewBox="0 0 1024 1024" version="1.1" xmlns="http://www.w3.org/2000/svg" p-id="5338" xmlns:xlink="http://www.w3.org/1999/xlink" width="200" height="200"><defs><style type="text/css"></style></defs><path d="M93.184 322.048m-33.28 0a33.28 33.28 0 1 0 66.56 0 33.28 33.28 0 1 0-66.56 0Z" p-id="5339" fill="#bdbdbd"></path><path d="M930.816 322.048m-33.28 0a33.28 33.28 0 1 0 66.56 0 33.28 33.28 0 1 0-66.56 0Z" p-id="5340" fill="#bdbdbd"></path><path d="M512 595.968c-184.832 0-343.552-91.136-446.976-256.512l56.32-35.328c90.624 145.408 229.376 225.28 390.656 225.28s300.032-79.872 390.656-225.28l56.32 35.328c-103.424 165.376-262.144 256.512-446.976 256.512z" p-id="5341" fill="#bdbdbd"></path><path d="M354.304 733.184c-17.408-6.144-26.112-25.6-19.968-42.496l47.104-130.048c6.144-17.408 25.6-26.112 42.496-19.968 17.408 6.144 26.112 25.6 19.968 42.496l-47.104 130.048c-6.144 17.408-25.6 26.112-42.496 19.968zM96.768 596.992c-12.8-12.8-12.8-34.304 0-47.104L194.56 452.096c12.8-12.8 34.304-12.8 47.104 0 12.8 12.8 12.8 34.304 0 47.104l-97.792 97.792c-13.312 12.8-34.304 12.8-47.104 0zM928.768 596.992c12.8-12.8 12.8-34.304 0-47.104l-97.792-97.792c-12.8-12.8-34.304-12.8-47.104 0-12.8 12.8-12.8 34.304 0 47.104l97.792 97.792c12.8 12.8 33.792 12.8 47.104 0zM669.696 733.184c17.408-6.144 26.112-25.6 19.968-42.496l-47.104-130.048c-6.144-17.408-25.6-26.112-42.496-19.968-17.408 6.144-26.112 25.6-19.968 42.496l47.104 130.048c6.144 17.408 25.6 26.112 42.496 19.968z" p-id="5342" fill="#bdbdbd"></path></svg>