<?xml version="1.0" standalone="no"?><!DOCTYPE svg PUBLIC "-//W3C//DTD SVG 1.1//EN" "http://www.w3.org/Graphics/SVG/1.1/DTD/svg11.dtd"><svg t="1549924274987" class="icon" style="" viewBox="0 0 1024 1024" version="1.1" xmlns="http://www.w3.org/2000/svg" p-id="3854" xmlns:xlink="http://www.w3.org/1999/xlink" width="200" height="200"><defs><style type="text/css"></style></defs><path d="M416.846769 1022.188308a40.802462 40.802462 0 0 1-40.644923-40.723693V681.826462a40.96 40.96 0 0 1 50.097231-39.620924l417.161846 99.800616 87.197539-622.513231-782.493539 453.395692 140.760615 36.233847a40.723692 40.723692 0 0 1-20.322461 78.848L31.586462 626.924308a40.723692 40.723692 0 0 1-10.24-74.594462L962.008615 7.246769a40.566154 40.566154 0 0 1 60.652308 40.881231l-104.999385 749.568a40.644923 40.644923 0 0 1-49.703384 33.949538L457.412923 733.420308v154.151384l83.101539-77.981538a40.566154 40.566154 0 1 1 55.532307 59.392l-151.552 142.178461a39.936 39.936 0 0 1-27.648 11.027693z" fill="#999999" p-id="3855"></path><path d="M416.846769 722.550154a40.881231 40.881231 0 0 1-30.326154-67.899077l215.906462-241.664a40.644923 40.644923 0 1 1 60.652308 54.272L447.172923 708.923077a40.566154 40.566154 0 0 1-30.326154 13.627077z" fill="#999999" p-id="3856"></path></svg>