<?xml version="1.0" standalone="no"?><!DOCTYPE svg PUBLIC "-//W3C//DTD SVG 1.1//EN" "http://www.w3.org/Graphics/SVG/1.1/DTD/svg11.dtd"><svg t="1550204150960" class="icon" style="" viewBox="0 0 1024 1024" version="1.1" xmlns="http://www.w3.org/2000/svg" p-id="7711" xmlns:xlink="http://www.w3.org/1999/xlink" width="200" height="200"><defs><style type="text/css"></style></defs><path d="M224 928H96c-17.7 0-32-14.3-32-32V416c0-17.7 14.3-32 32-32h128c17.7 0 32 14.3 32 32v480c0 17.7-14.3 32-32 32z m-96-64h64V448h-64v416zM800 928H320c-17.7 0-32-14.3-32-32V451.3c0-19.9 7-39.6 19.8-55.4l186.5-262.7C513.5 109.3 542 96 571.6 96H640c19.2 0 37.2 7.9 49.4 21.8 11.4 12.9 16.5 29.3 14.3 46.3-0.2 1.6-0.5 3.2-1 4.8L650.4 352H864c52.9 0 96 40.8 96 91.1v334.8c0 82.7-71.8 150.1-160 150.1z m-448-64h448c52.9 0 96-38.7 96-86.2V443.1c0-14.9-14.4-27.1-32-27.1H608c-10 0-19.5-4.7-25.5-12.7-6-8-8-18.4-5.2-28.1l61.4-214.9-67-0.3c-10.5 0-20.4 4.4-26.4 11.9L358.8 434.5c-4.8 6.1-6.8 11.3-6.8 16.8V864z m289.7-703.7h0.3-0.3z" fill="#bdbdbd" p-id="7712"></path></svg>